<svg xmlns:svg="http://www.w3.org/2000/svg" xmlns="http://www.w3.org/2000/svg" xmlns:xlink="http://www.w3.org/1999/xlink" xmlns:inkscape="http://www.inkscape.org/namespaces/inkscape" version="1" preserveAspectRatio="xMinYMin meet" viewBox="0 0 531 531" width="531.496" height="531.496" id="svg2">
<style>
.s0{
	stop-color:#ffffff;
	stop-opacity:0.991;
}
.s1{
	stop-color:#ffffff;
	stop-opacity:0;
}
.s2{
	fill:#000;
}

</style>  <defs id="defs4">
    <linearGradient id="linearGradient15281">
      <stop id="stop15283" offset="0" class="s0"/>
      <stop id="stop15287" offset="1" class="s1"/>
    </linearGradient>
    <linearGradient id="linearGradient14870">
      <stop id="stop14874" offset="0" class="s0"/>
      <stop id="stop14890" offset="0.289" style="stop-color:#ffffff;stop-opacity:0.298"/>
      <stop id="stop14876" offset="1" class="s1"/>
    </linearGradient>
    <linearGradient id="linearGradient14018">
      <stop id="stop14020" offset="0" class="s1"/>
      <stop id="stop14024" offset="0.954" class="s0"/>
      <stop id="stop14026" offset="1" class="s1"/>
    </linearGradient>
    <linearGradient id="linearGradient12851">
      <stop id="stop12853" offset="0" class="s1"/>
      <stop id="stop12859" offset="0.86" class="s1"/>
      <stop id="stop12855" offset="0.954" class="s0"/>
      <stop id="stop12857" offset="1" class="s1"/>
    </linearGradient>
    <linearGradient id="linearGradient12073">
      <stop id="stop12075" offset="0" class="s1"/>
      <stop id="stop13627" offset="0.57" style="stop-color:#ffffff;stop-opacity:0.112"/>
      <stop id="stop12462" offset="0.954" class="s0"/>
      <stop id="stop12077" offset="1" class="s1"/>
    </linearGradient>
    <filter id="filter6678">
      <feGaussianBlur inkscape:collect="always" stdDeviation="8.517" id="feGaussianBlur6680"/>
    </filter>
    <filter id="filter8040">
      <feGaussianBlur inkscape:collect="always" stdDeviation="9.274" id="feGaussianBlur8042"/>
    </filter>
    <filter id="filter8574">
      <feGaussianBlur inkscape:collect="always" stdDeviation="3.572" id="feGaussianBlur8576"/>
    </filter>
    <filter x="-0.17" width="1.34" y="-0.161" height="1.323" id="filter9033">
      <feGaussianBlur inkscape:collect="always" stdDeviation="21.402" id="feGaussianBlur9035"/>
    </filter>
    <filter x="-1.029" width="3.058" y="-0.909" height="2.819" id="filter10536">
      <feGaussianBlur inkscape:collect="always" stdDeviation="37.83" id="feGaussianBlur10538"/>
    </filter>
    <filter x="-0.43" width="1.861" y="-0.262" height="1.523" id="filter11092">
      <feGaussianBlur inkscape:collect="always" stdDeviation="7.401" id="feGaussianBlur11094"/>
    </filter>
    <filter x="-0.745" width="2.49" y="-0.489" height="1.978" id="filter11484">
      <feGaussianBlur inkscape:collect="always" stdDeviation="15.446" id="feGaussianBlur11486"/>
    </filter>
    <radialGradient cx="391.939" cy="414.591" r="354.564" fx="391.939" fy="414.591" id="radialGradient12079" xlink:href="#linearGradient12073" gradientUnits="userSpaceOnUse" gradientTransform="matrix(0.1027952,0.1620941,-0.1659344,0.1052306,340.35438,80.907552)" spreadMethod="pad"/>
    <radialGradient cx="391.939" cy="414.591" r="354.564" fx="391.939" fy="414.591" id="radialGradient12468" xlink:href="#linearGradient12851" gradientUnits="userSpaceOnUse" gradientTransform="matrix(0.1326361,0.2091491,-0.2141042,0.1357784,223.1505,-28.800401)" spreadMethod="pad"/>
    <radialGradient cx="391.939" cy="414.591" r="354.564" fx="391.939" fy="414.591" id="radialGradient13244" xlink:href="#linearGradient12073" gradientUnits="userSpaceOnUse" gradientTransform="matrix(4.9487928e-2,7.8035818e-2,-7.9884579e-2,5.0660393e-2,168.18434,39.870382)" spreadMethod="pad"/>
    <radialGradient cx="391.939" cy="414.591" r="354.564" fx="391.939" fy="414.591" id="radialGradient13631" xlink:href="#linearGradient12073" gradientUnits="userSpaceOnUse" gradientTransform="matrix(4.7432496e-2,7.4794689e-2,-7.6566685e-2,4.8556281e-2,311.79506,132.48784)" spreadMethod="pad"/>
    <radialGradient cx="391.939" cy="414.591" r="354.564" fx="391.939" fy="414.591" id="radialGradient13635" xlink:href="#linearGradient14018" gradientUnits="userSpaceOnUse" gradientTransform="matrix(3.1322746e-2,4.9391749e-2,-5.0561914e-2,3.2064835e-2,325.77434,265.42781)" spreadMethod="pad"/>
    <filter id="filter14477">
      <feGaussianBlur inkscape:collect="always" stdDeviation="1.192" id="feGaussianBlur14479"/>
    </filter>
    <radialGradient cx="391.939" cy="414.591" r="354.564" fx="391.939" fy="414.591" id="radialGradient14483" xlink:href="#linearGradient12073" gradientUnits="userSpaceOnUse" gradientTransform="matrix(0.1445704,0.227968,-0.233369,0.1479956,399.87993,76.328604)" spreadMethod="pad"/>
    <radialGradient cx="391.939" cy="414.591" r="354.564" fx="391.939" fy="414.591" id="radialGradient14487" xlink:href="#linearGradient14870" gradientUnits="userSpaceOnUse" gradientTransform="matrix(2.3182638e-2,3.6555907e-2,-3.7421976e-2,2.3731874e-2,308.78425,161.97663)" spreadMethod="pad"/>
    <radialGradient cx="391.939" cy="414.591" r="354.564" fx="391.939" fy="414.591" id="radialGradient14894" xlink:href="#linearGradient12073" gradientUnits="userSpaceOnUse" gradientTransform="matrix(5.775895e-2,9.1078086e-2,-9.3235924e-2,5.9127379e-2,243.37885,77.358186)" spreadMethod="pad"/>
    <radialGradient cx="391.939" cy="414.591" r="354.564" fx="391.939" fy="414.591" id="radialGradient14898" xlink:href="#linearGradient15281" gradientUnits="userSpaceOnUse" gradientTransform="matrix(4.49126e-3,7.0821115e-3,-7.2498974e-3,4.5976655e-3,265.99898,157.93058)" spreadMethod="pad"/>
    <radialGradient cx="391.939" cy="414.591" r="354.564" fx="391.939" fy="414.591" id="radialGradient15291" xlink:href="#linearGradient14018" gradientUnits="userSpaceOnUse" gradientTransform="matrix(3.1322746e-2,4.9391749e-2,-5.0561914e-2,3.2064835e-2,421.58107,323.95335)" spreadMethod="pad"/>
    <filter id="filter15721">
      <feGaussianBlur inkscape:collect="always" stdDeviation="1.588" id="feGaussianBlur15723"/>
    </filter>
    <filter id="filter16609">
      <feGaussianBlur inkscape:collect="always" stdDeviation="1.612" id="feGaussianBlur16611"/>
    </filter>
  </defs>
  <g transform="translate(-39.915894,95.91362)" id="layer1">
    <rect width="531.429" height="531.429" x="39.916" y="-95.914" id="rect2168" fill="#000"/>
  </g>
  <g transform="translate(-39.915894,95.91362)" id="layer9">
    <path d="M719.652 260.9L668.007 218.248 710.566 272.001 660.03 221.269 693.905 274.976 649.095 218.542 697.182 284.387 656.449 229.979 690.963 289.728 641.427 232.292 674.583 292.344 642.494 234.514 663.469 288.568 646.137 230.775 663.152 294.429 631.282 230.998 650.967 303.997 629.176 236.837 641.09 302.074 624.783 237.276 637.59 297.393 617.282 228.212 630.134 297.357 619.134 230.692 617.351 297.415 613.581 227.35 612.04 302.057 613.95 233.439 600.596 305.297 608.922 238.754 598.641 308.624 600.053 226.23 578.852 299.593 604.238 234.377 574.558 296.697 593.614 228.093 564.574 292.875 589.626 235.461 562.346 295.451 593.254 224.14 550.537 293.328 586.233 218.119 551.22 278.189 572.972 220.345 535.356 277.386 580.783 215.531 530.314 272.098 569.417 212.562 529.028 268.645 563.662 210.613 519.504 256.319 567.729 215.842 517.195 252.831 563.025 208.817 511.404 250.468 566.977 202.21 497.273 248.145 562.615 198.388 502.671 236.386 562.117 199.033 496.607 229.74 558.649 197.344 485.852 224.05 550.052 191.454 492.24 209.958 553.329 186.887 486.043 208.915 553.345 175.568 478.914 197.024 554.421 183.523 486.999 192.331 545.309 179.344 480.06 180.371 553.848 168.675 485.533 170.569 554.176 160.146 480.907 155.716 553.22 165.911 482.658 151.774 550.468 157.341 478.618 141.091 551.525 145.297 484.762 133.994 552.289 150.368 490.921 122.845 550.651 143.416 493.201 115.088 549.367 137.457 494.404 115.37 556.482 129.336 492.358 106.99 559.988 136.017 497.114 101.095 564.034 131.548 504.428 84.23 558.867 126.128 510.622 83.769 570.175 121.046 519.622 71.058 566.673 117.358 522.808 73.482 568.285 122.116 526.694 69.258 576.249 107.218 534.825 60.926 573.694 116.379 539.097 57.831 586.011 104.403 551.737 51.088 581.122 109.926 561.696 48.354 586.251 102.574 565.262 33.605 587.353 101.127 565.592 41.139 597.448 103.384 577.777 33.092 599.568 97.211 587.64 33.828 603.961 98.292 591.38 31.213 605.267 98.755 612.552 30.063 617.145 97.795 619.909 28.593 622.698 101.138 624.465 30.159 622.329 93.528 636.663 35.962 633.552 95.294 641.257 37.461 628.677 94.422 644.436 33.712 638.236 102.712 658.947 37.911 635.13 105.955 671.705 35.613 646.653 106.757 678.066 37.993 649.206 111.762 685.741 47.37 656.242 105.24 682.27 55.232 649.803 113.39 693.388 58.182 661.691 106.307 699.157 56.412 666.862 114.405 713.433 65.737 658.887 116.354 716.789 73.355 674.731 120.061 722.476 74.275 665.705 125.565 724.889 79.206 672.694 124.896 725.276 91.032 673.678 131.286 737.015 91.907 680.344 136.87 745.853 106.162 683.826 138.224 750.427 118.168 687.194 148.619 750.234 125.61 682.964 142.787 742.701 126.653 689.13 147.79 750.57 144.882 688.04 152.379 752.672 148.506 691.197 154.392 759.626 160.132 689.353 158.315 757.668 157.941 682.103 168.342 752.583 177.705 683.059 176.307 757.014 187.543 678.276 179.748 747.563 190.93 685.508 176.984 757.698 201.908 676.456 186.721 751.765 204.575 678.319 185.19 749.259 219.294 673.922 194.327 742.115 219.552 679.811 198.817 743.921 235.228 669.497 207.409 739.391 232.641 670.197 208.211 724.316 249.818 670.102 213.168 718.109 252.133 666.104 205.921 716.67 255.575 662.057 218.544 719.652 260.9z" transform="matrix(1.1486116,0,0,1.1486116,-410.53256,-29.684082)" id="path15726" style="fill:#fff;filter:url(#filter16609);opacity:0.05"/>
  </g>
  <g transform="translate(-39.915894,95.91362)" id="layer10"/>
  <g transform="translate(-39.915894,95.91362)" id="layer4">
    <path d="M431.281 280.375C374.541 279.864 321.523 325.071 312.659 380.795 303.91 428.103 326.052 479.991 366.995 505.169 407.543 531.311 463.831 530.995 502.938 502.219 539.442 476.775 560.657 430.423 553.813 386.094 548.054 341.851 516.125 301.49 473.313 287.25 459.852 282.547 445.593 280.129 431.281 280.375z" transform="matrix(1.0229666,0,0,1.0229666,-136.59716,-248.06929)" id="path4650" style="fill:#fff;filter:url(#filter6678)"/>
  </g>
  <g transform="translate(-39.915894,95.91362)" id="layer2">
    <path d="M562.857 402.362C562.857 474.159 504.654 532.362 432.857 532.362 361.06 532.362 302.857 474.159 302.857 402.362 302.857 330.565 361.06 272.362 432.857 272.362 504.654 272.362 562.857 330.565 562.857 402.362z" transform="matrix(1.0114645,0,0,1.0114645,-125.6824,-247.89704)" id="path2173" fill="#000"/>
  </g>
  <g transform="translate(-39.915894,95.91362)" id="layer3">
    <path d="M273.188 179.563C231.212 212.067 204.156 262.935 204.156 320.094 204.156 418.162 283.744 497.75 381.813 497.75 430.442 497.75 474.534 478.19 506.625 446.5 476.582 469.764 438.91 483.625 398 483.625 299.931 483.625 220.313 404.037 220.313 305.969 220.313 256.529 240.562 211.78 273.188 179.563z" transform="matrix(0.7401215,0,0,0.7401215,17.580059,-67.368169)" id="path6682" style="fill:#fff;filter:url(#filter8040)"/>
    <path d="M249.406 204.719C211.395 247.503 196.98 309.68 211.947 364.935 227.17 424.633 276.254 474.04 335.844 489.656 384.153 502.924 437.866 494.309 479.344 466.188 426.585 493.557 359.752 491.803 308.594 461.813 256.799 432.516 221.572 376.142 218.619 316.502 216.163 276.774 227.458 236.566 250.063 203.969L249.406 204.719z" transform="matrix(0.7401215,0,0,0.7401215,17.580059,-67.368169)" id="path4258" style="fill:#fff;filter:url(#filter8574)"/>
    <path d="M273.188 179.563C231.212 212.067 204.156 262.935 204.156 320.094 204.156 418.162 283.744 497.75 381.813 497.75 430.442 497.75 474.534 478.19 506.625 446.5 476.582 469.764 438.91 483.625 398 483.625 299.931 483.625 220.313 404.037 220.313 305.969 220.313 256.529 240.562 211.78 273.188 179.563z" transform="matrix(0.7401215,0,0,0.7401215,17.580059,-67.368169)" id="path8578" style="fill:#fff;filter:url(#filter9033)"/>
  </g>
  <g transform="translate(-39.915894,95.91362)" id="layer5">
    <path d="M232.313 182.781C213.455 182.706 182.957 212.234 176.43 230.568 170.357 251.293 192.282 253.19 206.54 267.531 212.058 273.052 218.221 278.015 224.594 282.594 240.052 242.303 258.54 220.968 262.013 188.811 248.409 188.821 245.917 182.724 232.313 182.781z" transform="matrix(0.7401215,0,0,0.7401215,17.580059,-67.368169)" id="path9056" style="fill:#fff;filter:url(#filter10536)"/>
  </g>
  <g transform="translate(-39.915894,95.91362)" id="layer6">
    <path d="M217.183 281.616C187.835 239.281 209.83 203.808 253.548 205.854 253.465 218.563 246.839 253.117 217.183 281.616z" transform="matrix(0.7401215,0,0,0.7401215,17.580059,-67.368169)" id="path10541" style="fill:#fff;filter:url(#filter11092)"/>
    <path d="M213.142 321.012C170.662 253.423 218.922 186.635 262.64 188.682 262.557 201.39 242.798 292.513 213.142 321.012z" transform="matrix(0.7401215,0,0,0.7401215,17.580059,-67.368169)" id="path11170" style="fill:#fff;filter:url(#filter11484)"/>
  </g>
  <g transform="translate(-39.915894,95.91362)" id="layer7">
    <rect width="90.102" height="91.999" x="182.786" y="92.992" id="rect14892" style="fill:url(#radialGradient14894);opacity:0.02"/>
    <rect width="206.907" height="211.263" x="84.006" y="7.101" id="rect12466" style="fill:url(#radialGradient12468);opacity:0.074"/>
  </g>
  <g transform="translate(-39.915894,95.91362)" id="layer11">
    <rect width="160.356" height="163.732" x="232.515" y="108.732" id="rect12055" style="fill:url(#radialGradient12079);opacity:0.074"/>
    <rect width="73.993" height="75.551" x="262.035" y="145.327" id="rect13629" style="fill:url(#radialGradient13631);opacity:0.074"/>
    <rect width="48.862" height="49.891" x="292.915" y="273.906" transform="matrix(0.7401215,0,0,0.7401215,17.580059,-67.368169)" id="rect13633" style="fill:url(#radialGradient13635);filter:url(#filter14477);opacity:0.074"/>
    <rect width="36.164" height="36.925" x="284.464" y="168.252" id="rect14485" fill="url(#radialGradient14487)"/>
    <rect width="7.006" height="7.154" x="261.287" y="159.146" id="rect14896" fill="url(#radialGradient14898)"/>
    <rect width="48.862" height="49.891" x="388.721" y="332.432" transform="matrix(0.9199465,0,0,0.9199465,-53.817018,-129.39063)" id="rect15289" style="fill:url(#radialGradient15291);filter:url(#filter14477);opacity:0.074"/>
    <rect width="225.524" height="230.272" x="248.215" y="115.461" id="rect14481" style="fill:url(#radialGradient14483);opacity:0.03"/>
    <rect width="77.199" height="78.824" x="116.268" y="53.266" id="rect13242" style="fill:url(#radialGradient13244);opacity:0.074"/>
  </g>
  <g transform="translate(-39.915894,95.91362)" id="layer8">
    <path d="M678.702 287.894L620.852 174.963 664.535 294.885 620.819 175.426 647.192 301.288 619.722 176.146 629.837 303.965 617.497 176.446 613.668 302.557 615.766 176.896 595.696 301.288 615.028 174.387 578.779 297.199 613.867 174.448 563.141 292.219 613.87 175.776 547.817 284.558 612.375 175.228 533.178 276.47 610.386 173.788 521.621 264.397 609.217 173.356 508.69 249.969 610.361 171.653 498.167 237.649 608.235 171.279 492.024 221.253 609.251 168.926 484.513 205.432 609.531 169.681 482.212 189.412 608.159 167.038 479.01 170.038 607.39 165.851 481.387 152.756 606.954 164.742 484.186 137.467 609.421 162.567 487.293 120.681 609.94 163.674 495.639 105.267 609.424 162.959 502.1 88.361 608.557 160.825 515.098 75.894 610.303 161.227 527.047 63.74 612.187 158.021 540.666 53.802 612.764 159.653 553.335 44.07 613.975 158.117 570.246 37.146 615.244 158.834 587.592 33.727 616.344 158.351 604.989 28.812 617.329 156.33 621.161 28.015 617.553 157.601 639.279 30.01 619.798 158.693 654.495 33.805 619.451 157.302 671.64 39.812 622.193 158.788 688.201 48.956 623.688 159.336 701.605 58.241 624.443 159.226 714.548 70.318 625.009 159.595 726.091 82.062 625.099 160.102 734.015 95.346 625.988 161.435 744.039 110.564 626.208 162.828 750.313 127.344 626.079 163.274 753.247 144.785 627.301 164.717 755.771 161.688 626.833 166.863 752.836 180.261 625.907 168.281 751.834 196.284 626.038 169.187 747.491 214.029 625.52 170.219 739.142 229.207 624.802 169.992 731.319 243.675 624.156 170.93 720.365 256.097 623.161 174.3 707.779 269.341 623.876 173.492 695.354 279.646 622.214 174.628 678.702 287.894z" transform="matrix(1.0381461,0,0,1.0381461,-455.63161,-65.997915)" id="path15294" style="fill:#fff;filter:url(#filter15721);opacity:0.034"/>
  </g>
</svg>
